<svg width="286" height="176" version="1.1" xmlns="http://www.w3.org/2000/svg" desc="Created with imagetracer.js version 1.2.6" ><path fill="rgb(0,0,0)" stroke="rgb(0,0,0)" stroke-width="1" opacity="0" d="M 0 0 L 286 0 L 286 176 L 0 176 L 0 0 Z M 51 59 L 40 63 L 31 71 L 25 84 L 26 96 L 31 106 L 41 113 L 47 113 L 50 111 L 49 104 L 44 100 L 37 91 L 37 86 L 42 76 L 45 76 L 51 72 L 57 72 L 65 76 L 69 84 L 69 93 L 65 100 L 57 105 Q 56 110 58 112 L 61 113 L 67 113 L 74 108 L 80 99 L 82 91 Q 82 80 78 74 Q 70 60 51 59 Z M 227 60 L 227 62 L 227 64 L 226 65 L 226 80 L 226 82 L 226 92 L 227 93 L 226 95 L 227 98 L 226 100 L 227 102 L 234 101 L 236 99 L 236 97 L 235 92 L 241 90 L 241 88 Q 243 89 241 91 L 245 93 Q 244 96 247 95 L 248 98 Q 250 103 259 101 L 254 93 Q 255 90 252 91 L 247 83 L 250 80 L 249 79 Q 251 75 253 77 Q 252 74 255 75 L 256 73 L 258 73 L 260 70 L 260 68 L 249 68 L 246 72 L 244 73 L 242 73 L 242 75 Q 239 74 240 77 L 236 78 L 236 70 L 235 69 Q 238 67 236 62 L 235 60 L 227 60 Z M 110 68 L 105 71 L 104 70 L 101 72 Q 96 75 98 77 Q 95 76 96 80 L 94 84 L 95 92 L 97 91 L 96 93 L 98 96 Q 100 100 102 97 L 101 99 L 110 102 L 119 101 Q 120 99 121 102 L 120 105 L 117 107 L 115 106 L 111 107 L 109 107 L 103 104 L 102 106 L 98 109 L 99 111 L 113 116 Q 114 114 119 115 L 123 112 Q 126 113 125 111 L 129 108 L 131 103 L 130 100 L 131 98 L 131 83 L 130 82 L 131 77 Q 132 69 130 70 L 130 69 L 123 68 L 122 71 L 114 68 L 110 68 Z M 156 68 L 155 69 L 146 69 L 142 72 L 139 72 L 138 75 Q 139 77 137 76 L 134 80 L 134 86 L 136 94 L 145 100 L 150 101 L 154 101 L 156 102 L 158 101 Q 160 102 159 100 L 161 100 L 165 98 Q 167 97 165 96 L 167 96 L 170 91 Q 169 85 171 84 L 169 77 Q 165 70 156 68 Z M 176 68 L 176 70 L 175 69 L 174 104 L 172 107 L 166 107 L 166 114 L 172 116 L 179 114 L 183 111 L 182 109 L 184 107 L 184 99 L 185 98 Q 186 93 184 92 L 184 83 L 185 82 L 184 70 L 181 68 L 178 69 L 176 68 Z M 204 68 L 195 71 L 191 75 L 187 84 Q 190 85 188 92 L 191 94 Q 193 93 192 96 L 197 98 L 197 100 L 199 99 L 202 101 Q 203 99 205 102 Q 210 104 209 101 L 211 101 L 213 100 L 216 99 Q 218 100 217 98 Q 218 95 220 97 L 221 95 L 215 90 L 213 93 L 208 94 Q 203 95 204 92 L 201 92 L 198 88 L 207 89 L 209 89 L 217 88 L 219 88 L 221 87 L 220 89 L 222 89 L 223 87 L 221 77 Q 217 71 210 68 L 204 68 Z M 51 76 L 48 78 L 41 87 Q 40 93 44 95 L 50 99 Q 57 100 61 97 L 65 92 Q 66 85 63 82 L 56 76 L 51 76 Z " /><path fill="rgb(0,0,0)" stroke="rgb(0,0,0)" stroke-width="1" opacity="0" d="M 203.5 76 Q 211.4 75.1 213 80.5 L 203.5 81 L 200.5 80 L 199 80.5 Q 197.8 76.8 201.5 78 L 203.5 76 Z " /><path fill="rgb(0,0,0)" stroke="rgb(0,0,0)" stroke-width="1" opacity="0" d="M 109.5 77 Q 117.8 75.7 120 80.5 L 121 86.5 L 120 90 Q 117 89 118 92 L 114.5 92 L 109.5 93 L 104 87.5 L 105 84.5 Q 104.4 79.4 107.5 78 L 109.5 77 Z " /><path fill="rgb(0,0,0)" stroke="rgb(0,0,0)" stroke-width="1" opacity="0" d="M 151.5 77 L 154.5 78 Q 156 75.5 157.5 79 Q 159.8 78.3 159 80.5 Q 161.5 82 160 87.5 L 158 91 Q 155.3 89.9 156 92.5 L 154.5 92 L 147.5 92 L 147 90.5 L 145 88.5 L 144 82.5 L 147.5 78 L 151.5 77 Z " /><path fill="rgb(3,13,3)" stroke="rgb(3,13,3)" stroke-width="1" opacity="0.9686274509803922" d="M 227 61 L 235 61 L 235 80.5 L 236.5 80 L 248.5 69 L 258.5 69 L 252.5 76 L 246 81.5 L 246 83.5 L 259 101 Q 250.2 103 248 97.5 L 240.5 88 L 235 92.5 Q 236.7 99.3 233.5 101 Q 227.3 101.8 227 100.5 L 227 61 Z " /><path fill="rgb(3,13,3)" stroke="rgb(3,13,3)" stroke-width="1" opacity="0.9686274509803922" d="M 108.5 69 L 114.5 69 L 122 72 L 122 69 L 128.5 69 L 130 70.5 L 130 102.5 Q 128.5 109 123.5 112 Q 119 116 109.5 115 L 99 111 Q 98.3 106.3 102.5 105 L 110.5 108 L 114.5 108 L 121 103.5 L 122 97.5 L 119.5 99 L 110.5 101 L 103.5 99 L 98 94.5 L 95 87.5 L 95 82.5 Q 96.1 75.1 101.5 72 L 108.5 69 Z M 111 76 L 107 78 L 103 84 L 105 91 L 111 94 L 119 92 L 121 90 L 122 86 L 121 81 Q 119 75 111 76 Z " /><path fill="rgb(3,13,3)" stroke="rgb(3,13,3)" stroke-width="1" opacity="0.9686274509803922" d="M 149.5 69 Q 161.3 68.3 166 74.5 Q 170.9 78.6 169 89.5 Q 167.6 95.6 162.5 98 L 155.5 101 L 150.5 101 L 143.5 99 L 138 94.5 Q 134.8 90.2 135 82.5 Q 136.1 75.1 141.5 72 L 149.5 69 Z M 152 76 L 147 78 L 143 84 L 145 91 L 151 94 Q 156 95 159 92 L 161 89 L 161 82 L 159 78 L 152 76 Z " /><path fill="rgb(3,13,3)" stroke="rgb(3,13,3)" stroke-width="1" opacity="0.9686274509803922" d="M 176.5 69 Q 182.8 68.3 183 69.5 L 183 107.5 L 178.5 114 L 167 115 L 167 108 L 171.5 108 L 175 105.5 L 175 70.5 L 176.5 69 Z " /><path fill="rgb(3,13,3)" stroke="rgb(3,13,3)" stroke-width="1" opacity="0.9686274509803922" d="M 201.5 69 Q 214.2 68.3 219 75.5 Q 222 79.8 221 87 L 211.5 88 L 209.5 88 L 197 87 Q 196.3 91.7 200.5 93 Q 203.7 95.3 210.5 94 L 214.5 91 L 219 94.5 L 215.5 99 L 208.5 101 L 203.5 101 L 192 96 L 189 90.5 L 188 84.5 L 190 77.5 L 194.5 72 L 201.5 69 Z M 202 76 L 200 77 L 197 82 L 213 82 L 213 80 Q 211 74 202 76 Z " /><path fill="rgb(12,157,22)" stroke="rgb(12,157,22)" stroke-width="1" opacity="0.9333333333333333" d="M 48.5 61 L 58.5 61 L 66.5 64 L 76 72.5 Q 81.1 78.4 81 89.5 Q 78.7 90.8 80 95.5 L 76 103.5 L 70.5 109 L 62.5 113 L 58 109.5 L 59 107.5 L 58 106.5 L 61.5 103 L 66 101 L 70 93.5 L 71 86.5 Q 69.3 77.3 62.5 73 Q 58.1 69.9 49.5 71 Q 42.3 72.8 39 78.5 L 36 84.5 L 36 90.5 Q 38.1 98.9 44.5 103 L 48 104 L 49 106.5 L 49 108.5 L 48 112 L 40.5 112 L 31 103.5 Q 25.5 97 26 84.5 Q 28.5 71 38.5 65 L 48.5 61 Z " /><path fill="rgb(12,157,22)" stroke="rgb(12,157,22)" stroke-width="1" opacity="0.9333333333333333" d="M 49.5 78 Q 59.6 76.4 62 82.5 L 64 89.5 L 58.5 97 L 50.5 98 L 44 92.5 L 43 85.5 L 46 80 L 49.5 78 Z " /><path fill="rgb(54,123,51)" stroke="rgb(54,123,51)" stroke-width="1" opacity="0.16470588235294117" d="M 50.5 59 Q 70.2 60.3 78 73.5 Q 82.2 79.8 82 90.5 L 80.5 95 L 80 90.5 L 81 85.5 L 78 75.5 L 70.5 67 L 58.5 61 L 48.5 61 L 44.5 63 L 45.5 61 L 50.5 59 Z " /><path fill="rgb(54,123,51)" stroke="rgb(54,123,51)" stroke-width="1" opacity="0.16470588235294117" d="M 39.5 63 L 42 63.5 Q 33.8 66.3 30 73.5 L 27.5 80 L 27 77.5 L 30 71 L 39.5 63 Z " /><path fill="rgb(54,123,51)" stroke="rgb(54,123,51)" stroke-width="1" opacity="0.16470588235294117" d="M 49.5 71 Q 63.7 69.8 68 78.5 Q 71 82.5 71 89.5 L 66 101 L 58 106.5 Q 57.3 111.3 60.5 112 L 62 112.5 L 60.5 113 L 58 112 Q 56.4 109.9 57 104.5 L 65 100 L 69 92.5 L 69 83.5 L 65 76 L 56.5 72 L 50.5 72 L 44.5 76 L 42 76 L 37 85.5 L 37 90.5 L 43.5 100 L 49 103.5 L 50 111 L 48 110.5 L 49 106.5 L 48 104 Q 41.9 103.2 39 97.5 Q 35.1 93.4 36 84.5 Q 38.6 77.1 44.5 73 L 49.5 71 Z " /><path fill="rgb(54,123,51)" stroke="rgb(54,123,51)" stroke-width="1" opacity="0.16470588235294117" d="M 50.5 76 L 55.5 76 L 63 81.5 Q 66 84.5 65 91.5 L 60.5 97 Q 57.2 100.2 49.5 99 L 44 94.5 Q 40.4 92.6 41 86.5 L 47.5 78 L 50.5 76 Z M 50 78 L 46 80 L 43 86 L 44 93 L 51 98 L 59 97 L 64 90 L 62 83 Q 60 76 50 78 Z " /><path fill="rgb(54,123,51)" stroke="rgb(54,123,51)" stroke-width="1" opacity="0.16470588235294117" d="M 26.5 81 L 27 83.5 Q 24.3 85.3 26 91.5 L 28 97.5 L 27 97.5 Q 24 92.5 25 83.5 L 26.5 81 Z " /><path fill="rgb(54,123,51)" stroke="rgb(54,123,51)" stroke-width="1" opacity="0.16470588235294117" d="M 167.5 94 L 166.5 96 L 167.5 94 Z " /><path fill="rgb(54,123,51)" stroke="rgb(54,123,51)" stroke-width="1" opacity="0.16470588235294117" d="M 79.5 96 L 80 98.5 L 73.5 108 Q 70.7 112.2 64.5 113 L 64.5 112 L 66.5 112 L 76 103.5 L 79.5 96 Z " /><path fill="rgb(54,123,51)" stroke="rgb(54,123,51)" stroke-width="1" opacity="0.16470588235294117" d="M 28.5 99 L 37.5 110 L 42 112.5 L 40.5 113 L 31 105.5 L 28 100.5 L 28.5 99 Z " /><path fill="rgb(32,29,31)" stroke="rgb(32,29,31)" stroke-width="1" opacity="0.17254901960784313" d="M 227.5 60 Q 234.3 58.3 236 61.5 L 235.5 68 L 235 61 L 227.5 61 L 227.5 60 Z " /><path fill="rgb(32,29,31)" stroke="rgb(32,29,31)" stroke-width="1" opacity="0.17254901960784313" d="M 226.5 64 L 227 79.5 L 226 79.5 L 226.5 64 Z " /><path fill="rgb(32,29,31)" stroke="rgb(32,29,31)" stroke-width="1" opacity="0.17254901960784313" d="M 109.5 68 L 114 68.5 L 109.5 69 L 109.5 68 Z " /><path fill="rgb(32,29,31)" stroke="rgb(32,29,31)" stroke-width="1" opacity="0.17254901960784313" d="M 122.5 68 L 130 68.5 L 121.5 70 L 122.5 68 Z " /><path fill="rgb(32,29,31)" stroke="rgb(32,29,31)" stroke-width="1" opacity="0.17254901960784313" d="M 155.5 68 Q 161.4 68.6 164 72.5 L 161.5 71 L 156.5 70 L 155.5 68 Z " /><path fill="rgb(32,29,31)" stroke="rgb(32,29,31)" stroke-width="1" opacity="0.17254901960784313" d="M 175.5 68 L 177 68.5 L 175 69 L 175 105.5 L 173.5 107 L 167 108 L 166.5 114 L 166 108.5 L 173 105.5 L 174 103.5 L 174 69.5 L 175.5 68 Z " /><path fill="rgb(32,29,31)" stroke="rgb(32,29,31)" stroke-width="1" opacity="0.17254901960784313" d="M 178.5 68 L 181 68.5 L 178.5 69 L 178.5 68 Z " /><path fill="rgb(32,29,31)" stroke="rgb(32,29,31)" stroke-width="1" opacity="0.17254901960784313" d="M 182.5 68 L 184 69.5 L 185 81.5 L 184 82.5 L 184 92.5 L 185 97.5 L 184 98.5 L 183.5 107 L 183 69.5 L 182.5 68 Z " /><path fill="rgb(32,29,31)" stroke="rgb(32,29,31)" stroke-width="1" opacity="0.17254901960784313" d="M 203.5 68 L 209.5 68 Q 216.9 70.6 221 76.5 L 220.5 80 Q 219.6 74.4 215.5 72 L 208.5 69 L 203.5 69 L 203.5 68 Z " /><path fill="rgb(32,29,31)" stroke="rgb(32,29,31)" stroke-width="1" opacity="0.17254901960784313" d="M 249.5 68 L 259.5 68 L 260 69.5 L 257.5 73 L 257 71.5 L 258.5 69 L 249.5 69 L 249.5 68 Z " /><path fill="rgb(32,29,31)" stroke="rgb(32,29,31)" stroke-width="1" opacity="0.17254901960784313" d="M 145.5 69 L 149 69.5 L 142.5 72 L 143.5 70 L 145.5 69 Z " /><path fill="rgb(32,29,31)" stroke="rgb(32,29,31)" stroke-width="1" opacity="0.17254901960784313" d="M 198.5 69 L 201 69.5 L 193 73.5 L 190.5 77 L 191 75.5 L 194.5 71 L 198.5 69 Z " /><path fill="rgb(32,29,31)" stroke="rgb(32,29,31)" stroke-width="1" opacity="0.17254901960784313" d="M 235.5 69 L 236 78 L 240 76.5 Q 239.3 73.9 242 75 L 242 73 L 243.5 73 L 245 72.5 L 235.5 81 L 235.5 69 Z " /><path fill="rgb(32,29,31)" stroke="rgb(32,29,31)" stroke-width="1" opacity="0.17254901960784313" d="M 247.5 69 L 246.5 71 L 247.5 69 Z " /><path fill="rgb(32,29,31)" stroke="rgb(32,29,31)" stroke-width="1" opacity="0.17254901960784313" d="M 103.5 70 L 102.5 72 L 103.5 70 Z " /><path fill="rgb(32,29,31)" stroke="rgb(32,29,31)" stroke-width="1" opacity="0.17254901960784313" d="M 118.5 70 L 122 71.5 L 120.5 72 L 118.5 70 Z " /><path fill="rgb(32,29,31)" stroke="rgb(32,29,31)" stroke-width="1" opacity="0.17254901960784313" d="M 130.5 70 L 131 76.5 L 130 76.5 L 130.5 70 Z " /><path fill="rgb(32,29,31)" stroke="rgb(32,29,31)" stroke-width="1" opacity="0.17254901960784313" d="M 100.5 72 L 97.5 76 L 100.5 72 Z " /><path fill="rgb(32,29,31)" stroke="rgb(32,29,31)" stroke-width="1" opacity="0.17254901960784313" d="M 139 72 L 141 72.5 L 138 74.5 L 139 72 Z " /><path fill="rgb(32,29,31)" stroke="rgb(32,29,31)" stroke-width="1" opacity="0.17254901960784313" d="M 165.5 73 Q 170.5 76 171 83.5 Q 168.5 85 170 90.5 L 166.5 95 L 168 92.5 Q 170.2 87.8 169 79.5 L 165.5 73 Z " /><path fill="rgb(32,29,31)" stroke="rgb(32,29,31)" stroke-width="1" opacity="0.17254901960784313" d="M 255.5 73 L 254.5 75 L 255.5 73 Z " /><path fill="rgb(32,29,31)" stroke="rgb(32,29,31)" stroke-width="1" opacity="0.17254901960784313" d="M 110.5 76 L 115 76.5 L 110.5 77 L 110.5 76 Z " /><path fill="rgb(32,29,31)" stroke="rgb(32,29,31)" stroke-width="1" opacity="0.17254901960784313" d="M 136 76 L 138 76.5 L 136 78.5 L 134.5 85 L 134 79.5 L 136 76 Z " /><path fill="rgb(32,29,31)" stroke="rgb(32,29,31)" stroke-width="1" opacity="0.17254901960784313" d="M 151.5 76 L 155 76.5 L 148.5 78 L 148.5 77 L 151.5 76 Z " /><path fill="rgb(32,29,31)" stroke="rgb(32,29,31)" stroke-width="1" opacity="0.17254901960784313" d="M 201.5 76 L 203 76.5 L 199 78 L 199.5 81 L 202.5 80 L 203.5 81 L 213 81.5 L 197 82 L 199.5 77 L 201.5 76 Z " /><path fill="rgb(32,29,31)" stroke="rgb(32,29,31)" stroke-width="1" opacity="0.17254901960784313" d="M 116.5 77 L 121 80.5 L 122 85.5 L 120 84.5 Q 121 79 117.5 78 L 116.5 77 Z " /><path fill="rgb(32,29,31)" stroke="rgb(32,29,31)" stroke-width="1" opacity="0.17254901960784313" d="M 156.5 77 L 159 78.5 L 157.5 79 L 156.5 77 Z " /><path fill="rgb(32,29,31)" stroke="rgb(32,29,31)" stroke-width="1" opacity="0.17254901960784313" d="M 210.5 77 L 212.5 80 L 210.5 77 Z " /><path fill="rgb(32,29,31)" stroke="rgb(32,29,31)" stroke-width="1" opacity="0.17254901960784313" d="M 106.5 78 L 106 79.5 L 104 85.5 L 104.5 87 Q 101.5 87.9 103 83.5 L 106.5 78 Z " /><path fill="rgb(32,29,31)" stroke="rgb(32,29,31)" stroke-width="1" opacity="0.17254901960784313" d="M 146.5 78 L 146 79.5 L 144.5 82 L 144 80.5 L 146.5 78 Z " /><path fill="rgb(32,29,31)" stroke="rgb(32,29,31)" stroke-width="1" opacity="0.17254901960784313" d="M 250.5 78 L 247 82.5 L 252 89.5 L 249 87.5 L 246 81.5 L 250.5 78 Z " /><path fill="rgb(32,29,31)" stroke="rgb(32,29,31)" stroke-width="1" opacity="0.17254901960784313" d="M 159.5 80 Q 162.8 81.8 161 88.5 L 158.5 92 L 156.5 93 L 156 91 Q 158.7 92.1 158 89.5 Q 161.5 88 160 81.5 L 159.5 80 Z " /><path fill="rgb(32,29,31)" stroke="rgb(32,29,31)" stroke-width="1" opacity="0.17254901960784313" d="M 188.5 81 L 189 84 L 187 83.5 L 188.5 81 Z " /><path fill="rgb(32,29,31)" stroke="rgb(32,29,31)" stroke-width="1" opacity="0.17254901960784313" d="M 221.5 81 L 223 86.5 L 221.5 89 L 221.5 81 Z " /><path fill="rgb(32,29,31)" stroke="rgb(32,29,31)" stroke-width="1" opacity="0.17254901960784313" d="M 226.5 81 L 227 91.5 L 226 91.5 L 226.5 81 Z " /><path fill="rgb(32,29,31)" stroke="rgb(32,29,31)" stroke-width="1" opacity="0.17254901960784313" d="M 130.5 82 L 131 93.5 L 130 93.5 L 130.5 82 Z " /><path fill="rgb(32,29,31)" stroke="rgb(32,29,31)" stroke-width="1" opacity="0.17254901960784313" d="M 94.5 83 L 96 91.5 L 98 93.5 L 95 91.5 L 94.5 83 Z " /><path fill="rgb(32,29,31)" stroke="rgb(32,29,31)" stroke-width="1" opacity="0.17254901960784313" d="M 143.5 83 L 145 86 Q 141.5 87.1 143.5 83 Z " /><path fill="rgb(32,29,31)" stroke="rgb(32,29,31)" stroke-width="1" opacity="0.17254901960784313" d="M 188.5 86 Q 188.3 91.3 191 93.5 L 188 91.5 L 188.5 86 Z " /><path fill="rgb(32,29,31)" stroke="rgb(32,29,31)" stroke-width="1" opacity="0.17254901960784313" d="M 120.5 87 L 121 89.5 L 118 91.5 Q 117.3 88.9 120 90 L 120.5 87 Z " /><path fill="rgb(32,29,31)" stroke="rgb(32,29,31)" stroke-width="1" opacity="0.17254901960784313" d="M 135.5 87 L 136 89.5 L 135 89.5 L 135.5 87 Z " /><path fill="rgb(32,29,31)" stroke="rgb(32,29,31)" stroke-width="1" opacity="0.17254901960784313" d="M 144.5 87 L 147 91.5 L 145 90.5 L 144.5 87 Z " /><path fill="rgb(32,29,31)" stroke="rgb(32,29,31)" stroke-width="1" opacity="0.17254901960784313" d="M 197.5 87 L 204 87.5 L 197.5 88 L 197.5 87 Z " /><path fill="rgb(32,29,31)" stroke="rgb(32,29,31)" stroke-width="1" opacity="0.17254901960784313" d="M 210.5 87 L 211.5 89 L 208 88.5 L 210.5 87 Z " /><path fill="rgb(32,29,31)" stroke="rgb(32,29,31)" stroke-width="1" opacity="0.17254901960784313" d="M 213.5 87 L 217 87.5 L 213.5 88 L 213.5 87 Z " /><path fill="rgb(32,29,31)" stroke="rgb(32,29,31)" stroke-width="1" opacity="0.17254901960784313" d="M 104.5 88 L 107 91.5 L 105 90.5 L 104.5 88 Z " /><path fill="rgb(32,29,31)" stroke="rgb(32,29,31)" stroke-width="1" opacity="0.17254901960784313" d="M 239.5 88 L 243 90 L 242.5 92 L 239.5 90 L 236.5 92 L 239.5 88 Z " /><path fill="rgb(32,29,31)" stroke="rgb(32,29,31)" stroke-width="1" opacity="0.17254901960784313" d="M 197.5 89 Q 198.9 93 204 92 Q 205.1 94.7 202.5 94 L 197.5 89 Z " /><path fill="rgb(32,29,31)" stroke="rgb(32,29,31)" stroke-width="1" opacity="0.17254901960784313" d="M 214.5 90 L 215.5 92 L 213 91.5 L 214.5 90 Z " /><path fill="rgb(32,29,31)" stroke="rgb(32,29,31)" stroke-width="1" opacity="0.17254901960784313" d="M 136.5 91 L 139 95.5 L 136 93.5 L 136.5 91 Z " /><path fill="rgb(32,29,31)" stroke="rgb(32,29,31)" stroke-width="1" opacity="0.17254901960784313" d="M 253.5 91 L 255 93.5 L 253 92.5 L 253.5 91 Z " /><path fill="rgb(32,29,31)" stroke="rgb(32,29,31)" stroke-width="1" opacity="0.17254901960784313" d="M 114.5 92 L 117 92.5 L 110.5 94 L 110.5 93 L 114.5 92 Z " /><path fill="rgb(32,29,31)" stroke="rgb(32,29,31)" stroke-width="1" opacity="0.17254901960784313" d="M 148.5 92 Q 153.8 90.8 155 93.5 L 150.5 94 L 148.5 92 Z " /><path fill="rgb(32,29,31)" stroke="rgb(32,29,31)" stroke-width="1" opacity="0.17254901960784313" d="M 217.5 92 L 221 94.5 L 219.5 97 L 217.5 92 Z " /><path fill="rgb(32,29,31)" stroke="rgb(32,29,31)" stroke-width="1" opacity="0.17254901960784313" d="M 208.5 93 L 211 93.5 L 208.5 94 L 208.5 93 Z " /><path fill="rgb(32,29,31)" stroke="rgb(32,29,31)" stroke-width="1" opacity="0.17254901960784313" d="M 98.5 95 L 105 99.5 L 103.5 100 L 98.5 95 Z " /><path fill="rgb(32,29,31)" stroke="rgb(32,29,31)" stroke-width="1" opacity="0.17254901960784313" d="M 130.5 95 L 131 97.5 L 130 97.5 L 130.5 95 Z " /><path fill="rgb(32,29,31)" stroke="rgb(32,29,31)" stroke-width="1" opacity="0.17254901960784313" d="M 164.5 96 L 166 96.5 L 160.5 100 L 161.5 98 L 164.5 96 Z " /><path fill="rgb(32,29,31)" stroke="rgb(32,29,31)" stroke-width="1" opacity="0.17254901960784313" d="M 121.5 97 L 122 101.5 L 119.5 100 L 118.5 101 L 109.5 102 L 107 100.5 L 109.5 100 L 112.5 101 L 117.5 100 L 121.5 97 Z " /><path fill="rgb(32,29,31)" stroke="rgb(32,29,31)" stroke-width="1" opacity="0.17254901960784313" d="M 130.5 100 L 131 102.5 L 128.5 108 L 128 106.5 L 130.5 100 Z " /><path fill="rgb(32,29,31)" stroke="rgb(32,29,31)" stroke-width="1" opacity="0.17254901960784313" d="M 147.5 100 L 151 101.5 L 149.5 101 Q 146.5 101.5 147.5 100 Z " /><path fill="rgb(32,29,31)" stroke="rgb(32,29,31)" stroke-width="1" opacity="0.17254901960784313" d="M 156.5 100 L 159 100.5 L 155.5 102 L 156.5 100 Z " /><path fill="rgb(32,29,31)" stroke="rgb(32,29,31)" stroke-width="1" opacity="0.17254901960784313" d="M 204.5 101 L 209 101.5 L 204.5 102 L 204.5 101 Z " /><path fill="rgb(32,29,31)" stroke="rgb(32,29,31)" stroke-width="1" opacity="0.17254901960784313" d="M 118.5 105 L 117.5 107 L 118.5 105 Z " /><path fill="rgb(32,29,31)" stroke="rgb(32,29,31)" stroke-width="1" opacity="0.17254901960784313" d="M 100.5 106 L 98.5 109 L 100.5 106 Z " /><path fill="rgb(32,29,31)" stroke="rgb(32,29,31)" stroke-width="1" opacity="0.17254901960784313" d="M 109.5 106 L 113.5 107 L 115 106.5 Q 115.9 109.9 110.5 108 L 109.5 106 Z " /><path fill="rgb(32,29,31)" stroke="rgb(32,29,31)" stroke-width="1" opacity="0.17254901960784313" d="M 42.5 112 L 46 112.5 L 42.5 113 L 42.5 112 Z " /></svg>