<svg width="635" height="393" version="1.1" xmlns="http://www.w3.org/2000/svg" desc="Created with imagetracer.js version 1.2.6" ><path fill="rgb(0,0,0)" stroke="rgb(0,0,0)" stroke-width="1" opacity="0" d="M 0 0 L 635 0 L 635 393 L 0 393 L 0 0 Z M 108 103 L 107 104 L 96 104 L 80 109 L 61 121 Q 41 137 35 168 L 36 170 L 35 175 L 36 188 L 40 202 L 52 222 Q 68 243 100 248 L 122 248 L 131 246 L 144 241 L 154 234 L 164 224 L 172 210 Q 178 196 177 177 L 177 175 L 176 169 L 174 168 L 143 168 L 142 169 Q 135 171 134 168 L 110 168 L 108 170 L 108 190 L 154 190 L 155 192 Q 153 204 146 212 L 134 222 L 123 226 Q 116 224 115 227 L 101 226 Q 98 223 92 224 L 78 216 Q 63 205 59 184 L 60 165 Q 63 152 70 144 Q 77 135 87 130 L 107 125 L 120 126 L 127 128 Q 136 131 143 138 L 146 138 L 158 126 L 158 123 Q 141 104 108 103 Z M 485 108 L 483 110 L 484 114 L 483 117 L 483 119 Q 486 120 484 127 L 484 129 L 483 134 L 483 136 L 484 139 L 484 147 L 483 148 L 484 150 L 484 169 L 484 171 L 484 222 L 483 223 L 484 225 L 484 246 L 488 245 L 505 245 L 506 244 L 507 244 L 507 233 L 507 231 L 506 218 L 505 217 L 505 209 L 506 208 L 506 169 L 507 168 L 506 163 L 506 133 L 507 132 L 507 113 L 506 110 L 505 108 L 485 108 Z M 221 154 Q 209 156 201 162 L 198 166 L 191 171 L 183 187 L 183 190 L 183 192 L 182 197 L 181 200 L 182 201 L 182 213 L 186 222 L 186 224 L 188 224 L 192 231 Q 191 233 194 232 L 195 235 L 204 242 L 219 247 L 228 248 L 230 248 L 240 246 L 242 247 L 248 244 L 249 245 Q 248 242 251 243 L 253 243 L 253 242 Q 254 239 256 241 L 259 239 L 258 238 Q 259 235 261 237 Q 263 236 261 235 L 267 230 L 273 220 L 273 217 L 273 215 L 274 213 L 275 210 L 275 192 L 273 186 L 273 184 L 266 172 L 259 164 L 258 165 L 258 164 L 257 163 Q 255 159 254 162 L 254 161 L 252 159 L 250 160 L 250 159 L 237 154 L 221 154 Z M 320 154 Q 305 157 297 165 Q 285 175 281 193 L 281 209 L 282 214 L 291 232 Q 301 245 322 249 L 342 248 L 360 239 L 371 226 L 375 217 Q 374 210 377 208 L 377 196 Q 374 193 375 187 L 368 173 Q 360 161 346 156 L 338 154 L 320 154 Z M 420 154 Q 406 158 397 166 Q 389 173 385 184 L 382 197 Q 381 220 392 232 Q 402 246 424 249 L 431 249 L 441 247 L 449 242 L 451 241 L 451 251 L 447 261 Q 443 267 434 269 L 423 269 L 413 264 L 405 254 L 401 254 L 386 262 L 386 265 L 394 276 Q 403 286 419 289 L 439 289 L 453 284 L 457 281 Q 465 275 469 265 L 473 248 L 473 160 L 472 157 L 469 156 L 467 156 L 454 156 L 451 157 L 451 162 L 439 155 L 420 154 Z M 549 154 Q 537 156 530 163 Q 518 172 514 188 L 515 193 L 513 193 L 513 210 L 516 221 L 518 220 L 517 222 L 519 227 L 521 226 L 520 228 L 521 230 L 523 229 L 522 231 L 524 234 Q 526 238 528 235 L 527 237 L 531 239 L 533 239 L 532 241 L 534 241 L 536 241 L 536 243 L 538 242 L 538 244 L 540 243 L 540 245 L 543 244 L 543 246 L 545 245 L 545 247 L 548 246 L 549 247 L 548 247 L 548 248 Q 553 250 555 247 L 557 248 L 555 248 L 555 249 L 566 249 L 563 248 L 563 247 L 568 248 L 571 248 L 570 247 L 570 246 L 574 247 L 574 245 L 577 246 L 577 244 L 580 245 L 580 243 L 582 244 L 583 241 L 585 242 L 585 240 L 587 241 Q 591 239 588 238 L 592 236 Q 594 237 593 235 Q 596 233 594 232 Q 595 229 597 231 Q 600 230 599 226 L 593 222 L 591 222 L 590 221 L 584 216 L 581 216 L 579 219 Q 574 226 564 228 Q 552 229 547 225 L 539 217 L 600 191 L 600 188 L 590 170 Q 584 162 575 157 L 566 154 L 549 154 Z " /><path fill="rgb(0,0,0)" stroke="rgb(0,0,0)" stroke-width="1" opacity="0" d="M 556.5 174 Q 568.6 173.9 573 181.5 L 545.5 194 L 535 197 Q 535.5 184.4 544.5 179 L 551.5 175 L 556.5 174 Z " /><path fill="rgb(0,0,0)" stroke="rgb(0,0,0)" stroke-width="1" opacity="0" d="M 222.5 175 Q 238.6 172.9 245 180.5 Q 244.3 182.8 246.5 182 L 251 188.5 L 254 198.5 L 254 200.5 Q 255.2 207.2 252 209.5 L 252 211.5 Q 252.7 214.1 250 213 L 250 217 L 248.5 217 L 245.5 222 Q 242.9 221.3 244 224 L 241.5 224 Q 236.2 230.2 222.5 228 L 209 219.5 L 205 213.5 Q 207.5 212 204 210.5 L 204 191.5 L 210 181 L 214 180 Q 212.9 177.3 215.5 178 L 222.5 175 Z " /><path fill="rgb(0,0,0)" stroke="rgb(0,0,0)" stroke-width="1" opacity="0" d="M 323.5 175 Q 332.4 173.6 337.5 176 L 348 183.5 L 353 193.5 L 353 208.5 Q 350.6 218.1 343.5 223 L 333.5 228 L 324.5 228 Q 314.3 225.3 309 217.5 L 304 206.5 L 304 197.5 Q 306.6 184.2 316.5 178 L 323.5 175 Z " /><path fill="rgb(0,0,0)" stroke="rgb(0,0,0)" stroke-width="1" opacity="0" d="M 423.5 175 L 434.5 175 L 446 182.5 L 452 194.5 L 452 208.5 Q 448.9 219.4 440.5 225 Q 435.3 229.4 424.5 228 Q 413.8 225.7 409 217.5 L 406 212.5 L 404 200.5 L 407 188.5 L 412 181 L 423.5 175 Z " /><path fill="rgb(96,137,170)" stroke="rgb(96,137,170)" stroke-width="1" opacity="0.8549019607843137" d="M 107.5 103 Q 141.2 104.3 158 122.5 L 158 125.5 L 145.5 138 L 142.5 138 Q 136.3 131.2 126.5 128 L 119.5 126 L 106.5 125 L 86.5 130 Q 76.8 135.3 70 143.5 Q 63.2 152.2 60 164.5 L 59 183.5 Q 62.8 205.2 77.5 216 L 91.5 224 Q 97.6 223.4 100.5 226 L 114.5 227 Q 116.3 224.3 122.5 226 L 133.5 222 L 146 211.5 Q 152.6 203.6 155 191.5 L 153.5 190 L 108 190 L 108 169.5 L 109.5 168 L 133.5 168 Q 135.2 170.7 141.5 169 L 142.5 168 L 173.5 168 L 176 169 L 177 174.5 L 177 176.5 Q 177.8 196.3 172 209.5 L 164 223.5 L 153.5 234 L 143.5 241 L 130.5 246 L 121.5 248 L 99.5 248 Q 67.8 242.7 52 221.5 L 40 201.5 L 36 187.5 L 35 174.5 L 36 169.5 L 35 167.5 Q 40.8 137.3 60.5 121 L 79.5 109 L 95.5 104 L 106.5 104 L 107.5 103 Z " /><path fill="rgb(96,137,170)" stroke="rgb(96,137,170)" stroke-width="1" opacity="0.8549019607843137" d="M 484.5 108 L 504.5 108 L 506 109.5 L 507 112.5 L 507 131.5 L 506 132.5 L 506 162.5 L 507 167.5 L 506 168.5 L 506 207.5 L 505 208.5 L 505 216.5 L 506 217.5 L 507 230.5 L 507 232.5 L 507 243.5 L 505.5 244 L 505.5 246 L 504.5 245 L 487.5 245 L 484 246 L 484 224.5 L 483 222.5 L 484 221.5 L 484 170.5 L 484 168.5 L 484 149.5 L 483 147.5 L 484 146.5 L 484 138.5 L 483 135.5 L 483 133.5 L 484 128.5 L 484 126.5 Q 485.8 120.3 483 118.5 L 483 116.5 L 484 113.5 L 483 109.5 L 484.5 108 Z " /><path fill="rgb(96,137,170)" stroke="rgb(96,137,170)" stroke-width="1" opacity="0.8549019607843137" d="M 220.5 154 L 237 154.5 L 215.5 156 L 215.5 155 L 220.5 154 Z " /><path fill="rgb(96,137,170)" stroke="rgb(96,137,170)" stroke-width="1" opacity="0.8549019607843137" d="M 319.5 154 L 322 154.5 L 319.5 155 L 319.5 154 Z " /><path fill="rgb(96,137,170)" stroke="rgb(96,137,170)" stroke-width="1" opacity="0.8549019607843137" d="M 333.5 154 L 337 154.5 L 333.5 155 L 333.5 154 Z " /><path fill="rgb(96,137,170)" stroke="rgb(96,137,170)" stroke-width="1" opacity="0.8549019607843137" d="M 419.5 154 L 438.5 155 L 450.5 162 L 451 157 L 453.5 156 L 466.5 156 L 468.5 156 L 472 157 L 473 159.5 L 473 247.5 L 469 264.5 Q 464.6 274.6 456.5 281 L 452.5 284 L 438.5 289 L 418.5 289 Q 402.8 285.8 394 275.5 L 386 264.5 L 386 261.5 L 400.5 254 L 404.5 254 L 412.5 264 L 422.5 269 L 433.5 269 Q 442.8 267.3 447 260.5 L 451 250.5 L 451 240.5 L 448.5 242 L 440.5 247 L 430.5 249 L 423.5 249 Q 402.4 245.6 392 231.5 Q 381.2 219.8 382 196.5 L 385 183.5 Q 389.2 173.2 396.5 166 Q 405.5 157.5 419.5 154 Z M 424 175 L 412 181 L 407 189 L 404 201 L 406 213 L 409 218 Q 414 226 425 228 Q 435 229 441 225 Q 449 219 452 209 L 452 195 L 446 183 L 435 175 L 424 175 Z " /><path fill="rgb(96,137,170)" stroke="rgb(96,137,170)" stroke-width="1" opacity="0.8549019607843137" d="M 548.5 154 L 565.5 154 L 569 155.5 L 566.5 156 L 565.5 155 L 548.5 155 L 541.5 157 L 541.5 156 L 548.5 154 Z " /><path fill="rgb(96,137,170)" stroke="rgb(96,137,170)" stroke-width="1" opacity="0.8549019607843137" d="M 238.5 155 L 244 156.5 L 242.5 157 L 238.5 156 L 238.5 155 Z " /><path fill="rgb(96,137,170)" stroke="rgb(96,137,170)" stroke-width="1" opacity="0.8549019607843137" d="M 339.5 155 L 346 156.5 L 343.5 157 L 339.5 156 L 339.5 155 Z " /><path fill="rgb(96,137,170)" stroke="rgb(96,137,170)" stroke-width="1" opacity="0.8549019607843137" d="M 209.5 157 L 211 157.5 L 204.5 161 L 205.5 159 L 209.5 157 Z " /><path fill="rgb(96,137,170)" stroke="rgb(96,137,170)" stroke-width="1" opacity="0.8549019607843137" d="M 245.5 157 Q 253.3 158.2 257 163.5 L 253.5 161 L 245.5 158 L 245.5 157 Z " /><path fill="rgb(96,137,170)" stroke="rgb(96,137,170)" stroke-width="1" opacity="0.8549019607843137" d="M 573.5 157 L 576 158.5 L 574.5 158 L 573.5 157 Z " /><path fill="rgb(96,137,170)" stroke="rgb(96,137,170)" stroke-width="1" opacity="0.8549019607843137" d="M 307.5 158 L 309 158.5 L 302.5 162 L 303.5 160 L 307.5 158 Z " /><path fill="rgb(96,137,170)" stroke="rgb(96,137,170)" stroke-width="1" opacity="0.8549019607843137" d="M 537.5 158 L 536.5 160 L 533.5 162 L 535.5 159 L 537.5 158 Z " /><path fill="rgb(96,137,170)" stroke="rgb(96,137,170)" stroke-width="1" opacity="0.8549019607843137" d="M 579.5 160 L 580.5 162 L 579.5 160 Z " /><path fill="rgb(96,137,170)" stroke="rgb(96,137,170)" stroke-width="1" opacity="0.8549019607843137" d="M 200.5 162 L 198.5 165 L 200.5 162 Z " /><path fill="rgb(96,137,170)" stroke="rgb(96,137,170)" stroke-width="1" opacity="0.8549019607843137" d="M 300.5 162 L 298.5 165 L 300.5 162 Z " /><path fill="rgb(96,137,170)" stroke="rgb(96,137,170)" stroke-width="1" opacity="0.8549019607843137" d="M 357.5 162 L 358.5 164 L 357.5 162 Z " /><path fill="rgb(96,137,170)" stroke="rgb(96,137,170)" stroke-width="1" opacity="0.8549019607843137" d="M 582.5 162 L 589.5 170 L 582.5 162 Z " /><path fill="rgb(96,137,170)" stroke="rgb(96,137,170)" stroke-width="1" opacity="0.8549019607843137" d="M 530.5 163 L 529.5 165 L 530.5 163 Z " /><path fill="rgb(96,137,170)" stroke="rgb(96,137,170)" stroke-width="1" opacity="0.8549019607843137" d="M 258.5 164 L 262.5 169 L 258.5 164 Z " /><path fill="rgb(96,137,170)" stroke="rgb(96,137,170)" stroke-width="1" opacity="0.8549019607843137" d="M 195.5 166 L 193.5 169 L 195.5 166 Z " /><path fill="rgb(96,137,170)" stroke="rgb(96,137,170)" stroke-width="1" opacity="0.8549019607843137" d="M 526.5 166 L 527 167.5 L 524 169 L 522.5 172 L 523 170.5 L 526.5 166 Z " /><path fill="rgb(96,137,170)" stroke="rgb(96,137,170)" stroke-width="1" opacity="0.8549019607843137" d="M 291.5 171 L 290 173.5 L 284.5 184 L 284 182.5 L 291.5 171 Z " /><path fill="rgb(96,137,170)" stroke="rgb(96,137,170)" stroke-width="1" opacity="0.8549019607843137" d="M 266.5 173 L 267.5 175 L 266.5 173 Z " /><path fill="rgb(96,137,170)" stroke="rgb(96,137,170)" stroke-width="1" opacity="0.8549019607843137" d="M 519.5 175 L 520 176.5 L 518 177.5 L 519.5 175 Z " /><path fill="rgb(96,137,170)" stroke="rgb(96,137,170)" stroke-width="1" opacity="0.8549019607843137" d="M 593.5 176 L 594.5 178 L 593.5 176 Z " /><path fill="rgb(96,137,170)" stroke="rgb(96,137,170)" stroke-width="1" opacity="0.8549019607843137" d="M 570.5 178 L 572.5 181 L 570.5 178 Z " /><path fill="rgb(96,137,170)" stroke="rgb(96,137,170)" stroke-width="1" opacity="0.8549019607843137" d="M 541.5 181 L 539.5 184 L 541.5 181 Z " /><path fill="rgb(96,137,170)" stroke="rgb(96,137,170)" stroke-width="1" opacity="0.8549019607843137" d="M 571.5 182 L 573 182.5 L 560.5 188 L 560.5 187 L 571.5 182 Z " /><path fill="rgb(96,137,170)" stroke="rgb(96,137,170)" stroke-width="1" opacity="0.8549019607843137" d="M 597.5 184 L 600 187.5 L 598 186.5 L 597.5 184 Z " /><path fill="rgb(96,137,170)" stroke="rgb(96,137,170)" stroke-width="1" opacity="0.8549019607843137" d="M 538.5 185 L 537.5 187 L 538.5 185 Z " /><path fill="rgb(96,137,170)" stroke="rgb(96,137,170)" stroke-width="1" opacity="0.8549019607843137" d="M 374.5 186 L 375 188.5 L 374 188.5 L 374.5 186 Z " /><path fill="rgb(96,137,170)" stroke="rgb(96,137,170)" stroke-width="1" opacity="0.8549019607843137" d="M 514.5 187 L 515 190.5 L 514 190.5 L 514.5 187 Z " /><path fill="rgb(96,137,170)" stroke="rgb(96,137,170)" stroke-width="1" opacity="0.8549019607843137" d="M 555.5 189 L 554.5 191 L 553 190.5 L 555.5 189 Z " /><path fill="rgb(96,137,170)" stroke="rgb(96,137,170)" stroke-width="1" opacity="0.8549019607843137" d="M 599.5 189 L 600 191 L 598 190.5 L 599.5 189 Z " /><path fill="rgb(96,137,170)" stroke="rgb(96,137,170)" stroke-width="1" opacity="0.8549019607843137" d="M 550.5 191 L 552 191.5 L 549.5 193 L 550.5 191 Z " /><path fill="rgb(96,137,170)" stroke="rgb(96,137,170)" stroke-width="1" opacity="0.8549019607843137" d="M 593.5 192 L 592.5 194 L 593.5 192 Z " /><path fill="rgb(96,137,170)" stroke="rgb(96,137,170)" stroke-width="1" opacity="0.8549019607843137" d="M 513.5 193 L 514 207.5 L 513 207.5 L 513.5 193 Z " /><path fill="rgb(96,137,170)" stroke="rgb(96,137,170)" stroke-width="1" opacity="0.8549019607843137" d="M 589.5 194 L 591 194.5 L 588.5 196 L 589.5 194 Z " /><path fill="rgb(96,137,170)" stroke="rgb(96,137,170)" stroke-width="1" opacity="0.8549019607843137" d="M 376.5 195 L 377 204.5 L 376 204.5 L 376.5 195 Z " /><path fill="rgb(96,137,170)" stroke="rgb(96,137,170)" stroke-width="1" opacity="0.8549019607843137" d="M 565.5 204 L 567 204.5 L 561.5 207 L 562.5 205 L 565.5 204 Z " /><path fill="rgb(96,137,170)" stroke="rgb(96,137,170)" stroke-width="1" opacity="0.8549019607843137" d="M 282.5 210 L 283 212.5 L 282 212.5 L 282.5 210 Z " /><path fill="rgb(96,137,170)" stroke="rgb(96,137,170)" stroke-width="1" opacity="0.8549019607843137" d="M 514.5 212 L 515 214.5 L 514 214.5 L 514.5 212 Z " /><path fill="rgb(96,137,170)" stroke="rgb(96,137,170)" stroke-width="1" opacity="0.8549019607843137" d="M 374.5 214 L 375 216.5 L 374 216.5 L 374.5 214 Z " /><path fill="rgb(96,137,170)" stroke="rgb(96,137,170)" stroke-width="1" opacity="0.8549019607843137" d="M 540.5 214 L 542 214.5 L 539.5 216 L 540.5 214 Z " /><path fill="rgb(96,137,170)" stroke="rgb(96,137,170)" stroke-width="1" opacity="0.8549019607843137" d="M 580.5 216 L 579.5 218 L 580.5 216 Z " /><path fill="rgb(96,137,170)" stroke="rgb(96,137,170)" stroke-width="1" opacity="0.8549019607843137" d="M 284.5 218 L 286 220.5 L 284 219.5 L 284.5 218 Z " /><path fill="rgb(96,137,170)" stroke="rgb(96,137,170)" stroke-width="1" opacity="0.8549019607843137" d="M 309.5 218 L 312.5 222 L 309.5 218 Z " /><path fill="rgb(96,137,170)" stroke="rgb(96,137,170)" stroke-width="1" opacity="0.8549019607843137" d="M 516.5 219 L 518 221.5 L 516 220.5 L 516.5 219 Z " /><path fill="rgb(96,137,170)" stroke="rgb(96,137,170)" stroke-width="1" opacity="0.8549019607843137" d="M 578.5 219 L 574.5 224 L 578.5 219 Z " /><path fill="rgb(96,137,170)" stroke="rgb(96,137,170)" stroke-width="1" opacity="0.8549019607843137" d="M 593.5 222 L 595.5 225 L 593.5 222 Z " /><path fill="rgb(96,137,170)" stroke="rgb(96,137,170)" stroke-width="1" opacity="0.8549019607843137" d="M 370.5 224 L 371 225.5 L 369 226.5 L 370.5 224 Z " /><path fill="rgb(96,137,170)" stroke="rgb(96,137,170)" stroke-width="1" opacity="0.8549019607843137" d="M 518.5 224 L 527 235.5 L 524 233.5 L 518.5 224 Z " /><path fill="rgb(96,137,170)" stroke="rgb(96,137,170)" stroke-width="1" opacity="0.8549019607843137" d="M 598.5 227 L 599 228.5 L 595 231.5 L 598.5 227 Z " /><path fill="rgb(96,137,170)" stroke="rgb(96,137,170)" stroke-width="1" opacity="0.8549019607843137" d="M 267.5 228 L 266.5 230 L 267.5 228 Z " /><path fill="rgb(96,137,170)" stroke="rgb(96,137,170)" stroke-width="1" opacity="0.8549019607843137" d="M 368.5 228 L 366 231.5 L 364.5 234 L 364 232.5 L 368.5 228 Z " /><path fill="rgb(96,137,170)" stroke="rgb(96,137,170)" stroke-width="1" opacity="0.8549019607843137" d="M 291.5 230 L 294 233.5 L 291 231.5 L 291.5 230 Z " /><path fill="rgb(96,137,170)" stroke="rgb(96,137,170)" stroke-width="1" opacity="0.8549019607843137" d="M 265.5 231 L 258.5 239 L 254.5 242 L 257.5 238 L 265.5 231 Z " /><path fill="rgb(96,137,170)" stroke="rgb(96,137,170)" stroke-width="1" opacity="0.8549019607843137" d="M 296.5 236 L 306 242.5 L 304.5 243 Q 298.5 240.5 296.5 236 Z " /><path fill="rgb(96,137,170)" stroke="rgb(96,137,170)" stroke-width="1" opacity="0.8549019607843137" d="M 361.5 236 L 359.5 239 L 361.5 236 Z " /><path fill="rgb(96,137,170)" stroke="rgb(96,137,170)" stroke-width="1" opacity="0.8549019607843137" d="M 528.5 236 L 531.5 240 L 528 237.5 L 528.5 236 Z " /><path fill="rgb(96,137,170)" stroke="rgb(96,137,170)" stroke-width="1" opacity="0.8549019607843137" d="M 590.5 236 L 586.5 241 L 584.5 242 L 585.5 240 L 590.5 236 Z " /><path fill="rgb(96,137,170)" stroke="rgb(96,137,170)" stroke-width="1" opacity="0.8549019607843137" d="M 357.5 239 L 356.5 241 L 357.5 239 Z " /><path fill="rgb(96,137,170)" stroke="rgb(96,137,170)" stroke-width="1" opacity="0.8549019607843137" d="M 354.5 241 L 353.5 243 L 354.5 241 Z " /><path fill="rgb(96,137,170)" stroke="rgb(96,137,170)" stroke-width="1" opacity="0.8549019607843137" d="M 534.5 241 L 535.5 243 L 534.5 241 Z " /><path fill="rgb(96,137,170)" stroke="rgb(96,137,170)" stroke-width="1" opacity="0.8549019607843137" d="M 252.5 242 L 251.5 244 L 252.5 242 Z " /><path fill="rgb(96,137,170)" stroke="rgb(96,137,170)" stroke-width="1" opacity="0.8549019607843137" d="M 582.5 242 L 581.5 244 L 578.5 245 L 578.5 244 L 582.5 242 Z " /><path fill="rgb(96,137,170)" stroke="rgb(96,137,170)" stroke-width="1" opacity="0.8549019607843137" d="M 537.5 243 L 541 244.5 L 539.5 245 L 537.5 243 Z " /><path fill="rgb(96,137,170)" stroke="rgb(96,137,170)" stroke-width="1" opacity="0.8549019607843137" d="M 348.5 244 L 350 244.5 L 347.5 246 L 348.5 244 Z " /><path fill="rgb(96,137,170)" stroke="rgb(96,137,170)" stroke-width="1" opacity="0.8549019607843137" d="M 571.5 246 L 574 246.5 L 568.5 248 L 568.5 247 L 571.5 246 Z " /><path fill="rgb(96,137,170)" stroke="rgb(96,137,170)" stroke-width="1" opacity="0.8549019607843137" d="M 316.5 247 L 319 247.5 L 316.5 248 L 316.5 247 Z " /><path fill="rgb(96,137,170)" stroke="rgb(96,137,170)" stroke-width="1" opacity="0.8549019607843137" d="M 549.5 247 L 552 247.5 L 549.5 248 L 549.5 247 Z " /><path fill="rgb(96,137,170)" stroke="rgb(96,137,170)" stroke-width="1" opacity="0.8549019607843137" d="M 327.5 248 L 333 248.5 L 327.5 249 L 327.5 248 Z " /><path fill="rgb(96,137,170)" stroke="rgb(96,137,170)" stroke-width="1" opacity="0.8549019607843137" d="M 557.5 248 L 566 248.5 L 557.5 249 L 557.5 248 Z " /><path fill="rgb(219,105,44)" stroke="rgb(219,105,44)" stroke-width="1" opacity="0.8941176470588236" d="M 322.5 154 Q 327.2 152.8 328.5 155 L 332.5 154 L 336.5 155 Q 338 152.5 339.5 156 L 349.5 158 L 360 164 Q 358.9 166.7 361.5 166 L 365 171 L 368 172.5 L 373 182.5 L 376 192.5 L 376 204.5 L 377 205.5 L 372 224 Q 369.3 222.9 370 225.5 L 362.5 236 L 346.5 246 L 333.5 249 Q 332.3 246.8 327.5 248 L 324.5 249 L 314.5 246 L 313.5 247 L 308.5 244 L 306 244 Q 307.1 241.3 304.5 242 L 294 234.5 L 292 230 Q 289.3 231.1 290 228.5 Q 285.8 226.3 287.5 224 Q 285.3 224.8 286 222.5 L 285 219.5 L 282 213.5 L 283 210.5 L 281 207.5 L 282 205.5 L 281 204.5 L 281 195.5 L 282 192.5 L 282 188 Q 284.7 189.1 284 186.5 Q 281.5 185 285 183.5 Q 288.6 173.1 295.5 166 L 309 159 L 309.5 157 L 311.5 157 L 322.5 154 Z M 324 175 Q 316 177 313 182 Q 310 181 311 184 L 309 184 Q 310 188 306 190 L 304 198 L 304 207 Q 307 208 306 213 L 313 222 Q 315 221 314 224 L 325 228 L 334 228 L 344 223 Q 350 218 353 210 L 353 194 L 349 185 L 338 176 Q 332 174 324 175 Z " /><path fill="rgb(219,105,44)" stroke="rgb(219,105,44)" stroke-width="1" opacity="0.8941176470588236" d="M 220.5 155 L 234.5 155 L 235.5 156 L 237.5 155 L 243.5 157 L 245 156.5 Q 244.3 158.8 246.5 158 L 256.5 164 L 258 163.5 L 257.5 165 L 264 169 Q 263 172 266 171 L 266 173.5 L 270 177.5 L 274 187.5 Q 276.8 196.2 275 209.5 L 270 226 Q 267.3 224.9 268 227.5 L 261 236 L 252.5 242 L 243.5 245 L 241.5 247 L 239.5 246 L 229.5 248 L 227.5 248 L 218.5 247 L 203.5 242 L 195 234.5 L 193.5 232 Q 191.3 232.8 192 230.5 L 188 224 L 186 223.5 L 186 221.5 L 182 212.5 L 182 200.5 L 181 199.5 L 182 196.5 L 184 184.5 L 191 171 L 203 162 L 203.5 160 L 205.5 160 L 211.5 157 L 220.5 155 Z M 223 175 L 210 181 L 204 192 L 204 211 Q 207 212 205 214 L 209 220 L 223 228 L 235 228 L 244 224 Q 248 223 247 218 L 250 217 Q 249 212 252 213 L 254 207 L 254 201 L 254 199 L 249 185 L 239 176 L 223 175 Z " /><path fill="rgb(219,105,44)" stroke="rgb(219,105,44)" stroke-width="1" opacity="0.8941176470588236" d="M 548.5 155 Q 563.4 153.1 572.5 157 Q 584.1 161.9 591 171.5 L 592 175 L 594 175.5 Q 591.5 177 595 178.5 L 596 183 L 598 183.5 L 598 185.5 L 600 188.5 L 598 188.5 L 596.5 192 L 594.5 193 Q 593 190.5 591.5 194 L 573.5 201 L 567.5 205 L 565.5 204 L 542.5 215 L 540.5 214 L 539 217.5 L 547.5 226 Q 553.3 229.3 563.5 228 L 574.5 224 L 579 219.5 L 581.5 216 L 590 220.5 Q 589.2 223.1 592.5 222 L 599 226.5 L 597 227.5 Q 599.3 228.8 596.5 230 L 594 231.5 L 595 232.5 L 591.5 236 L 588 237.5 L 586.5 240 Q 583.2 238.9 584 241.5 L 582 241.5 Q 582.8 244.1 579.5 243 L 577.5 245 L 576.5 244 L 572.5 246 Q 568.3 245.3 567.5 248 L 562.5 247 L 555.5 249 L 555.5 248 L 557 247.5 L 554.5 247 L 552.5 248 L 549.5 247 L 548 247.5 L 548.5 246 L 546.5 247 L 544 246.5 L 544.5 245 L 537.5 242 L 536 242.5 Q 536.9 239.5 532.5 241 L 532.5 239 L 528.5 236 L 527 236.5 L 527.5 235 Q 525.3 235.8 526 233.5 L 517 222.5 L 518 220.5 L 516 218.5 L 513 208.5 L 514 207.5 L 514 193.5 L 515 192.5 L 515 190.5 L 517 179.5 Q 521 177.3 521 172 L 524 170.5 Q 523.3 168.3 525.5 169 L 529.5 163 L 531 163.5 L 532.5 161 Q 534 163.5 535.5 160 L 540.5 157 L 548.5 155 Z M 556 174 Q 546 175 542 181 Q 536 185 535 193 L 536 198 L 543 195 L 545 195 L 547 194 Q 548 190 550 193 L 572 183 Q 574 184 573 181 Q 568 173 556 174 Z " /></svg>