<svg width="635" height="393" version="1.1" xmlns="http://www.w3.org/2000/svg" desc="Created with imagetracer.js version 1.2.6" ><path fill="rgb(0,0,0)" stroke="rgb(0,0,0)" stroke-width="1" opacity="0" d="M 0 0 L 635 0 L 635 393 L 0 393 L 0 0 Z M 118 106 L 110 108 L 102 113 Q 87 126 86 153 L 85 154 L 48 154 L 46 155 L 43 159 L 44 173 L 45 174 L 46 202 L 47 203 L 47 217 L 48 218 L 48 237 L 49 238 L 49 250 L 50 251 L 50 264 L 52 269 Q 57 277 68 280 L 105 280 L 106 281 L 112 280 L 114 280 L 117 279 L 126 280 Q 127 277 129 281 L 130 280 L 171 280 Q 179 279 184 274 Q 189 269 191 261 L 191 241 L 192 240 L 192 227 L 193 226 L 193 209 L 194 208 L 194 196 L 195 195 L 196 167 L 197 166 L 196 157 L 194 154 L 156 154 L 154 153 L 154 148 L 151 136 L 143 120 Q 136 107 118 106 Z M 251 169 L 238 172 L 233 175 L 224 185 L 222 196 L 223 201 L 228 208 L 235 212 L 260 220 L 265 224 L 270 234 Q 271 239 268 242 Q 265 246 259 248 L 247 248 L 234 243 L 229 238 L 225 238 L 221 243 L 222 247 L 235 255 L 247 258 L 252 257 L 254 258 L 257 257 L 259 257 L 263 258 L 270 255 Q 277 250 280 242 Q 282 228 276 222 Q 270 214 262 210 Q 246 207 236 199 L 233 196 L 234 189 L 241 182 L 246 181 L 248 181 L 251 180 L 260 181 L 267 186 L 272 186 L 274 183 L 273 178 L 262 170 L 252 170 L 251 169 Z M 291 169 L 289 170 L 286 174 L 286 255 L 287 257 L 292 259 L 295 258 L 297 256 L 297 223 Q 301 216 311 214 Q 319 213 323 216 L 326 222 L 326 256 L 331 259 L 335 258 L 337 255 L 337 219 L 333 211 Q 329 205 321 204 L 309 204 L 298 208 L 297 173 Q 296 168 291 169 Z M 414 203 Q 410 204 411 208 L 411 210 L 410 212 L 410 245 L 411 246 Q 413 251 410 253 L 411 255 L 411 266 L 410 267 L 410 282 L 411 285 L 415 287 L 420 286 L 421 284 L 421 252 Q 427 257 438 259 Q 451 259 459 253 Q 467 247 469 235 L 468 225 L 464 217 Q 458 208 448 205 L 435 205 L 425 209 L 422 212 L 420 205 Q 419 202 414 203 Z M 369 205 L 356 211 Q 349 217 346 227 L 346 237 L 351 248 Q 357 257 370 259 L 378 259 L 379 258 Q 383 259 382 257 L 384 257 L 389 255 Q 398 249 401 237 L 401 228 L 396 216 Q 389 204 369 205 Z M 500 205 L 490 209 Q 481 215 478 226 L 478 239 L 484 251 L 491 256 L 502 259 L 516 258 L 528 253 L 529 251 Q 530 245 527 244 L 521 244 L 510 249 Q 501 250 497 247 L 489 238 L 527 237 L 530 235 Q 532 221 526 215 Q 519 203 500 205 Z M 560 205 L 546 212 Q 540 217 538 225 L 538 239 L 544 251 L 554 257 L 562 259 L 575 258 L 587 254 L 590 250 L 589 245 L 587 244 L 582 244 L 577 247 L 568 249 Q 560 249 556 246 Q 550 243 550 237 L 587 237 L 591 234 L 591 225 L 586 214 Q 581 208 573 205 L 560 205 Z " /><path fill="rgb(0,0,0)" stroke="rgb(0,0,0)" stroke-width="1" opacity="0" d="M 117.5 116 L 125.5 117 L 134 123.5 L 142 139.5 L 144 154 L 96.5 154 L 96 153.5 L 96 146.5 L 99 134.5 L 103 126.5 L 111.5 118 L 117.5 116 Z " /><path fill="rgb(0,0,0)" stroke="rgb(0,0,0)" stroke-width="1" opacity="0" d="M 116.5 173 L 131.5 175 L 140 181.5 Q 140.8 185.3 138.5 186 L 135.5 186 L 127.5 180 L 115.5 180 Q 107.2 182.2 103 188.5 L 102 197.5 L 107.5 204 L 132.5 214 L 142 221.5 Q 147 226.5 147 236.5 Q 145.3 246.8 138.5 252 Q 130.8 258.3 114.5 256 Q 102.2 253.5 95 247 L 94 243.5 L 96.5 240 L 109.5 248 L 118.5 250 L 126.5 250 Q 134.8 247.8 139 241.5 L 140 233.5 L 136 224 L 125.5 217 L 103.5 210 L 98 204.5 Q 93.8 200.7 95 191.5 Q 97.8 181.8 105.5 177 L 116.5 173 Z " /><path fill="rgb(0,0,0)" stroke="rgb(0,0,0)" stroke-width="1" opacity="0" d="M 501.5 215 Q 512.3 213.7 516 219.5 L 519 225.5 L 490 226 Q 490.7 220.6 495.5 218 L 501.5 215 Z " /><path fill="rgb(0,0,0)" stroke="rgb(0,0,0)" stroke-width="1" opacity="0" d="M 563.5 215 L 569.5 215 L 577 219 L 580 225.5 L 550 226 L 555.5 218 L 563.5 215 Z " /><path fill="rgb(0,0,0)" stroke="rgb(0,0,0)" stroke-width="1" opacity="0" d="M 369.5 216 Q 383.7 214.8 388 223.5 L 390 233.5 Q 388.6 241.1 383.5 245 Q 379.7 249.2 370.5 248 Q 362.6 245.9 359 239.5 L 357 230.5 Q 358.4 222.9 363.5 219 L 369.5 216 Z " /><path fill="rgb(0,0,0)" stroke="rgb(0,0,0)" stroke-width="1" opacity="0" d="M 436.5 216 Q 450.7 214.8 455 223.5 Q 458.5 227.5 457 236.5 L 450.5 245 L 444.5 248 L 436.5 248 Q 429.8 245.8 426 240.5 L 424 234.5 L 424 228.5 Q 425.8 221.3 431.5 218 L 436.5 216 Z " /><path fill="rgb(229,83,52)" stroke="rgb(229,83,52)" stroke-width="1" opacity="0.8745098039215686" d="M 117.5 106 Q 136.1 106.9 143 119.5 L 151 135.5 L 154 147.5 L 154 152.5 L 155.5 154 L 193.5 154 L 196 156.5 L 197 165.5 L 196 166.5 L 195 194.5 L 194 195.5 L 194 207.5 L 193 208.5 L 193 225.5 L 192 226.5 L 192 239.5 L 191 240.5 L 191 260.5 Q 189.1 269.1 183.5 274 Q 178.7 278.7 170.5 280 L 129.5 280 L 128.5 281 Q 127 277.5 125.5 280 L 116.5 279 L 113.5 280 L 111.5 280 L 105.5 281 L 104.5 280 L 67.5 280 Q 57 276.9 52 268.5 L 50 263.5 L 50 250.5 L 49 249.5 L 49 237.5 L 48 236.5 L 48 217.5 L 47 216.5 L 47 202.5 L 46 201.5 L 45 173.5 L 44 172.5 L 43 158.5 L 45.5 155 L 47.5 154 L 84.5 154 L 86 152.5 Q 86.8 125.8 101.5 113 L 109.5 108 L 117.5 106 Z M 118 116 L 112 118 L 103 127 L 99 135 L 96 147 L 96 154 L 97 154 L 144 154 L 142 140 L 134 124 L 126 117 L 118 116 Z M 117 173 L 106 177 Q 98 182 95 192 Q 94 201 98 205 L 104 210 L 126 217 L 136 224 L 140 234 L 139 242 Q 135 248 127 250 L 119 250 L 110 248 L 97 240 L 94 244 L 95 247 Q 102 253 115 256 Q 131 258 139 252 Q 145 247 147 237 Q 147 226 142 222 L 133 214 L 108 204 L 102 198 L 103 189 Q 107 182 116 180 L 128 180 L 136 186 L 139 186 Q 141 185 140 182 L 132 175 L 117 173 Z " /><path fill="rgb(229,83,52)" stroke="rgb(229,83,52)" stroke-width="1" opacity="0.8745098039215686" d="M 250.5 169 L 251.5 170 L 261.5 170 L 273 177.5 L 274 182.5 L 271.5 186 L 266.5 186 L 259.5 181 L 250.5 180 L 247.5 181 L 245.5 181 L 240.5 182 L 234 188.5 L 233 195.5 L 235.5 199 Q 246 207 261.5 210 Q 270.3 214.3 276 221.5 Q 282 227.5 280 241.5 Q 276.8 250.3 269.5 255 L 262.5 258 L 258.5 257 L 256.5 257 L 253.5 258 L 251.5 257 L 246.5 258 L 234.5 255 L 222 246.5 L 221 242.5 L 224.5 238 L 228.5 238 L 233.5 243 L 246.5 248 L 258.5 248 Q 265 246.5 268 241.5 Q 270.7 239.2 270 233.5 L 264.5 224 L 259.5 220 L 234.5 212 L 228 208 L 223 200.5 L 222 195.5 L 224 184.5 L 232.5 175 L 237.5 172 L 250.5 169 Z " /><path fill="rgb(229,83,52)" stroke="rgb(229,83,52)" stroke-width="1" opacity="0.8745098039215686" d="M 290.5 169 Q 296.3 168.3 297 172.5 L 297.5 208 L 308.5 204 L 320.5 204 Q 328.8 205.2 333 210.5 L 337 218.5 L 337 254.5 L 334.5 258 L 330.5 259 L 326 255.5 L 326 221.5 L 322.5 216 Q 318.5 213 310.5 214 Q 301.3 215.8 297 222.5 L 297 255.5 L 294.5 258 L 291.5 259 L 287 256.5 L 286 254.5 L 286 173.5 L 288.5 170 L 290.5 169 Z " /><path fill="rgb(229,83,52)" stroke="rgb(229,83,52)" stroke-width="1" opacity="0.8745098039215686" d="M 413.5 203 Q 418.8 201.8 420 204.5 L 421.5 212 L 424.5 209 L 434.5 205 L 447.5 205 Q 458.4 208.1 464 216.5 L 468 224.5 L 469 234.5 Q 466.6 246.6 458.5 253 Q 451.4 259.4 437.5 259 Q 427.1 257.1 421 252 L 421 283.5 L 420 286 L 414.5 287 L 411 284.5 L 410 281.5 L 410 266.5 L 411 265.5 L 411 254.5 L 410 252.5 Q 412.5 251 411 245.5 L 410 244.5 L 410 211.5 L 411 209.5 L 411 207.5 Q 410.5 203.5 413.5 203 Z M 437 216 L 432 218 Q 426 221 424 229 L 424 235 L 426 241 Q 430 246 437 248 L 445 248 L 451 245 L 457 237 Q 459 227 455 224 Q 451 215 437 216 Z " /><path fill="rgb(229,83,52)" stroke="rgb(229,83,52)" stroke-width="1" opacity="0.8745098039215686" d="M 368.5 205 Q 388.8 203.8 396 215.5 L 401 227.5 L 401 236.5 Q 398.1 249.1 388.5 255 L 383.5 257 L 382 256.5 Q 382.9 259.5 378.5 258 L 377.5 259 L 369.5 259 Q 356.9 256.6 351 247.5 L 346 236.5 L 346 226.5 Q 348.9 216.9 355.5 211 L 368.5 205 Z M 370 216 L 364 219 Q 358 223 357 231 L 359 240 Q 363 246 371 248 Q 380 249 384 245 Q 389 241 390 234 L 388 224 Q 384 215 370 216 Z " /><path fill="rgb(229,83,52)" stroke="rgb(229,83,52)" stroke-width="1" opacity="0.8745098039215686" d="M 499.5 205 Q 519.4 203.1 526 214.5 Q 531.7 220.8 530 234.5 L 526.5 237 L 489 237.5 L 496.5 247 Q 500.9 250.1 509.5 249 L 520.5 244 L 526.5 244 Q 529.6 245.4 529 250.5 L 528 253 L 515.5 258 L 501.5 259 L 490.5 256 L 484 250.5 L 478 238.5 L 478 225.5 Q 481.1 214.6 489.5 209 L 499.5 205 Z M 502 215 L 496 218 Q 491 221 490 226 L 519 226 L 516 220 Q 512 214 502 215 Z " /><path fill="rgb(229,83,52)" stroke="rgb(229,83,52)" stroke-width="1" opacity="0.8745098039215686" d="M 559.5 205 L 572.5 205 Q 581 207.5 586 213.5 L 591 224.5 L 591 233.5 L 586.5 237 L 550 237 Q 550.3 243.4 555.5 246 Q 559.8 249.2 567.5 249 L 576.5 247 L 581.5 244 L 586.5 244 L 589 245 L 590 249.5 L 586.5 254 L 574.5 258 L 561.5 259 L 553.5 257 L 544 250.5 L 538 238.5 L 538 224.5 Q 540.3 216.8 545.5 212 L 559.5 205 Z M 564 215 L 556 218 L 550 226 L 580 226 L 577 219 L 570 215 L 564 215 Z " /></svg>